<?xml version="1.0" encoding="UTF-8"?>
<svg id="Layer_2" data-name="Layer 2" xmlns="http://www.w3.org/2000/svg" viewBox="0 0 484.73 47.13">
  <defs>
    <style>
      .cls-1 {
        font-family: SourceHanSansCN-Regular-GBpc-EUC-H, 'Source Han Sans CN';
      }

      .cls-1, .cls-2, .cls-3, .cls-4, .cls-5, .cls-6, .cls-7, .cls-8 {
        fill: #20296f;
      }

      .cls-1, .cls-7 {
        font-size: 6.51px;
      }

      .cls-2 {
        font-size: 4.53px;
        letter-spacing: .18em;
      }

      .cls-2, .cls-3, .cls-4 {
        font-family: NewtextITCbyBT-Regular, 'Newtext Rg BT';
      }

      .cls-3 {
        font-size: 3.73px;
      }

      .cls-4 {
        font-size: 3.73px;
      }

      .cls-9 {
        letter-spacing: 0em;
      }

      .cls-10 {
        fill-rule: evenodd;
      }

      .cls-10, .cls-11 {
        fill: #c7a074;
      }

      .cls-10, .cls-11, .cls-6 {
        stroke-width: 0px;
      }

      .cls-12 {
        letter-spacing: -.05em;
      }

      .cls-13 {
        letter-spacing: 0em;
      }

      .cls-5 {
        font-family: xiaowei, xiaowei;
        font-size: 17.75px;
        letter-spacing: .02em;
      }

      .cls-7 {
        font-family: Avenir-Roman, Avenir;
      }

      .cls-8 {
        font-family: SourceHanSansCN-Bold-GBpc-EUC-H, 'Source Han Sans CN';
        font-size: 8.51px;
        font-weight: 700;
      }
    </style>
  </defs>
  <g id="_图层_1" data-name="图层 1">
    <g>
      <g id="Shape">
        <path class="cls-11" d="M278.74,10.41v-.75h-.87v.53h-1.19v-.53h-.88v.73s-.79,1.24-1.08,1.77c-.3.52-.31.98-.31.98v.97h5.73v-1.12c0-.42-.27-.8-.27-.8l-1.13-1.79ZM276.75,12.51h-.55v-.4h.55v.4ZM276.75,11.85h-.55v-.4h.55v.4ZM276.75,11.2h-.55v-.4h.55v.4ZM277.53,12.51h-.55v-.4h.55v.4ZM277.53,11.85h-.55v-.4h.55v.4ZM277.53,11.2h-.55v-.4h.55v.4ZM278.3,12.51h-.54v-.4h.54v.4ZM278.3,11.85h-.54v-.4h.54v.4ZM278.3,11.2h-.54v-.4h.54v.4ZM275.47,9.97c-.48.37-1.31.36-1.88.19-.02.41-.04.93,1.03.81,1.07-.11.86-1,.86-1ZM281,10.17c-.58.17-1.4.18-1.88-.19,0,0-.21.89.86,1,1.06.12,1.05-.4,1.02-.81ZM275.48,9.74c0-.2.09-.49.6-.58.51-.09,1.22-.15,1.97-.07.75.08,1.04.28,1.04.65,1.02.49,1.87.23,1.87.23,0,0,.05-.39-.42-1.18-2.73-1.04-5.75-.35-6.52,0-.29.31-.45,1.18-.45,1.18,1.08.31,1.91-.24,1.91-.24Z"/>
      </g>
      <g id="Shape-2" data-name="Shape">
        <path class="cls-11" d="M314.38,18.28c-1.07,0-1.93.88-1.93,1.96,0,.1,0,.21.02.31.09.89.87,2.55,1.89,3.6,1.16-1.32,1.64-2.59,1.82-3.19.09-.22.13-.46.13-.72,0-1.08-.87-1.96-1.94-1.96ZM314.38,21.01c-.42,0-.76-.34-.76-.77s.34-.77.76-.77.76.35.76.77-.34.77-.76.77Z"/>
      </g>
      <text class="cls-7" transform="translate(283.7 13.53)"><tspan x="0" y="0" xml:space="preserve">0755-25501008          </tspan><tspan class="cls-9" x="63.68" y="0">l</tspan><tspan class="cls-13" x="65.25" y="0" xml:space="preserve">ixin_jewelry@hotmail.com          ww</tspan><tspan class="cls-12" x="168.23" y="0">w</tspan><tspan x="172.69" y="0">.lxgem.cn</tspan></text>
      <text class="cls-1" transform="translate(319.24 23.5)"><tspan x="0" y="0">深圳市罗湖区田贝四路42号水贝万山珠宝园C区二楼C2-16</tspan></text>
      <g id="Shape-3" data-name="Shape">
        <path class="cls-10" d="M437.64,12.62l-.09-.05v.11s.03,1.29.03,1.29l.02.14.08-.11.32-.44.22.32.02.02h.37l-.06-.09-.29-.44.51-.14.13-.04-.12-.06-1.15-.51ZM437.02,8.25c-1.55,0-2.8,1.3-2.8,2.88s1.25,2.87,2.8,2.87c.09,0,.17,0,.24-.01h.06s0-.06,0-.06l-.05-.35v-.04s-.06,0-.06,0c-.03,0-.05,0-.08,0-.04,0-.07.01-.11.01-.49,0-.96-.18-1.37-.47,1.76-.65,3.04-1.53,3.67-2.5.05.18.07.37.07.53,0,.58-.21,1.16-.61,1.61l-.03.05.05.03.29.18.04.03.03-.05c.44-.52.67-1.18.67-1.86,0-1.58-1.26-2.88-2.8-2.88ZM436.71,9.2c.06-.16.06-.32.03-.47.09-.02.19-.04.28-.04.31,0,.63.08.93.21-.3.37-.81.78-1.41,1.16-.05-.15-.1-.31-.15-.47.15-.13.25-.25.31-.39ZM436.31,8.82c.03.07.03.14,0,.21-.08.22-.38.41-.66.44-.07,0-.19,0-.29-.06.26-.26.59-.47.95-.59ZM435.08,9.76c.17.12.38.17.62.14.1,0,.21-.04.32-.08.04.18.09.33.14.46-.51.29-1.02.5-1.49.64.04-.43.18-.83.4-1.16ZM435.28,12.76c-.34-.39-.55-.86-.6-1.38.51-.14,1.09-.37,1.65-.69.23.48.54.87.9,1.18-.57.33-1.23.63-1.96.89ZM437.63,11.61c-.37-.27-.68-.66-.91-1.15.69-.42,1.3-.92,1.64-1.35.33.22.61.54.78.93-.25.54-.77,1.07-1.51,1.56Z"/>
      </g>
      <g>
        <path class="cls-11" d="M344.73,9.11c0-.09-.07-.16-.16-.16h-6.04c-.09,0-.16.07-.16.16v.44l3.18,1.59,3.18-1.59v-.44Z"/>
        <path class="cls-11" d="M344.73,10.26l-3.18,1.59-3.18-1.59v2.98c0,.09.07.16.16.16h6.04c.09,0,.16-.07.16-.16v-2.98Z"/>
      </g>
      <text class="cls-8" transform="translate(390.63 37.35)"><tspan x="0" y="0">深圳市罗湖区立信珠宝行</tspan></text>
    </g>
    <g>
      <g>
        <path class="cls-6" d="M23.56,47.13C10.57,47.13,0,36.56,0,23.56S10.57,0,23.56,0s23.56,10.57,23.56,23.56-10.57,23.56-23.56,23.56ZM23.56.84C11.03.84.84,11.03.84,23.56s10.19,22.72,22.72,22.72,22.72-10.19,22.72-22.72S36.09.84,23.56.84Z"/>
        <path class="cls-6" d="M23.56,44.97c-11.8,0-21.4-9.6-21.4-21.4S11.76,2.16,23.56,2.16s21.4,9.6,21.4,21.4-9.6,21.4-21.4,21.4ZM23.56,2.37C11.88,2.37,2.37,11.88,2.37,23.56s9.51,21.19,21.19,21.19,21.19-9.51,21.19-21.19S35.25,2.37,23.56,2.37Z"/>
        <text class="cls-4" transform="translate(7.64 17.08) rotate(-64.01)"><tspan x="0" y="0">L</tspan></text>
        <text class="cls-4" transform="translate(9.17 14.22) rotate(-55.27)"><tspan x="0" y="0">I</tspan></text>
        <text class="cls-4" transform="translate(10.29 12.62) rotate(-46.02)"><tspan x="0" y="0">X</tspan></text>
        <text class="cls-4" transform="translate(12.9 10.12) rotate(-36.79)"><tspan x="0" y="0">I</tspan></text>
        <text class="cls-4" transform="translate(14.48 8.95) rotate(-27.29)"><tspan x="0" y="0">N</tspan></text>
        <text class="cls-4" transform="translate(17.83 7.39) rotate(-17.55)"><tspan x="0" y="0"> </tspan></text>
        <text class="cls-4" transform="translate(19.9 6.8) rotate(-10.31)"><tspan x="0" y="0"> </tspan></text>
        <text class="cls-4" transform="translate(22.01 6.46) rotate(-2)"><tspan x="0" y="0">J</tspan></text>
        <text class="cls-4" transform="translate(24.83 6.41) rotate(8.51)"><tspan x="0" y="0">E</tspan></text>
        <text class="cls-4" transform="translate(28.31 6.98) rotate(22.05)"><tspan x="0" y="0">W</tspan></text>
        <text class="cls-4" transform="translate(32.45 8.84) rotate(35.51)"><tspan x="0" y="0">E</tspan></text>
        <text class="cls-4" transform="translate(35.27 10.98) rotate(46.71)"><tspan x="0" y="0">L</tspan></text>
        <text class="cls-4" transform="translate(37.4 13.35) rotate(58.03)"><tspan x="0" y="0">R</tspan></text>
        <text class="cls-4" transform="translate(39.25 16.49) rotate(70.24)"><tspan x="0" y="0">Y</tspan></text>
        <g>
          <text class="cls-3" transform="translate(10.28 38.31) rotate(36.9)"><tspan x="0" y="0">S</tspan></text>
          <text class="cls-3" transform="translate(12.9 40.16) rotate(30.24)"><tspan x="0" y="0">I</tspan></text>
          <text class="cls-3" transform="translate(14.5 41.1) rotate(23.26)"><tspan x="0" y="0">N</tspan></text>
          <text class="cls-3" transform="translate(17.94 42.49) rotate(13.71)"><tspan x="0" y="0">C</tspan></text>
          <text class="cls-3" transform="translate(21.38 43.27) rotate(1.44)"><tspan x="0" y="0">E</tspan></text>
          <text class="cls-3" transform="translate(24.9 43.23) rotate(-7.72)"><tspan x="0" y="0"> </tspan></text>
          <text class="cls-3" transform="translate(26.88 42.92) rotate(-13)"><tspan x="0" y="0"> </tspan></text>
          <text class="cls-3" transform="translate(28.82 42.46) rotate(-19.23)"><tspan x="0" y="0">2</tspan></text>
          <text class="cls-3" transform="translate(31.88 41.32) rotate(-27.15)"><tspan x="0" y="0">0</tspan></text>
          <text class="cls-3" transform="translate(34.74 39.79) rotate(-35.69)"><tspan x="0" y="0">0</tspan></text>
          <text class="cls-3" transform="translate(37.35 37.82) rotate(-45.21)"><tspan x="0" y="0">1</tspan></text>
        </g>
        <g>
          <polygon class="cls-6" points="21.16 16.74 19.59 16.05 19.03 19.96 20.34 19.47 21.16 16.74"/>
          <polygon class="cls-6" points="23.12 16.1 27.93 14.41 22.84 11.85 21.79 12.25 22.06 16.09 23.12 16.1"/>
          <polygon class="cls-6" points="21.02 13.32 19.86 15.25 21.2 15.84 21.02 13.32"/>
          <polygon class="cls-6" points="22.89 16.94 21.98 16.93 21.26 19.33 23.62 19.15 22.89 16.94"/>
          <path class="cls-6" d="M15.92,31.64c1.06,0,1.94-.76,2.13-1.76h-4.27c.2,1,1.08,1.76,2.13,1.76Z"/>
          <path class="cls-6" d="M13.79,29.04h4.24c-.25-1.26-1.38-4.01-2.12-5.7-.74,1.7-1.87,4.44-2.12,5.7Z"/>
          <path class="cls-6" d="M29.09,29.04h4.24c-.25-1.26-1.38-4.01-2.12-5.7-.74,1.7-1.87,4.44-2.12,5.7Z"/>
          <polygon class="cls-6" points="22.43 34.12 24.7 34.12 24.7 22.25 22.43 22.34 22.43 34.12"/>
          <path class="cls-6" d="M23.56,8.34c-8.41,0-15.23,6.82-15.23,15.23s6.82,15.23,15.23,15.23,15.23-6.82,15.23-15.23-6.82-15.23-15.23-15.23ZM31.21,32.48c-1.66,0-3.02-1.35-3.02-3.02,0-1.32,1.87-5.61,2.47-6.97l-2.48-1.34-2.26,1.02s-.1.03-.16.04h-.23v11.91h3.65c.23,0,.42.19.42.42s-.19.42-.42.42h-11.24c-.23,0-.42-.19-.42-.42s.19-.42.42-.42h3.65v-11.78s-.03,0-.04,0l-2.99-1.27-2.12,1.38c.58,1.3,2.49,5.68,2.49,7.01,0,1.66-1.35,3.02-3.02,3.02s-3.02-1.35-3.02-3.02c0-1.42,2.18-6.32,2.59-7.23.02-.11.08-.21.18-.28l2.46-1.6.7-4.96s.01-.03.02-.05c0-.02,0-.04.01-.06,0,0,.01-.01.02-.02,0,0,0-.02,0-.03l2.1-3.47s.01,0,.02-.01c.04-.07.1-.12.18-.15,0,0,0,0,.01,0l1.51-.59c.11-.04.24-.04.34.02l6.14,3.1s0,0,0,0c.08.04.15.12.19.21,0,0,0,0,0,0l1.49,3.87c.06.15.02.32-.09.44l-1.85,1.96,2.46,1.33s0,0,0,0c.04.02.07.05.1.09,0,.01.02.02.03.03.02.03.05.04.06.07.27.59,2.63,5.85,2.63,7.33,0,1.66-1.35,3.02-3.02,3.02Z"/>
          <path class="cls-6" d="M31.21,31.64c1.06,0,1.94-.76,2.13-1.76h-4.27c.2,1,1.08,1.76,2.13,1.76Z"/>
          <polygon class="cls-6" points="28.75 15.01 23.72 16.78 24.51 19.18 28.21 20.14 30 18.25 28.75 15.01"/>
          <polygon class="cls-6" points="20.78 20.21 19.66 20.62 21.79 21.52 25.65 21.37 27.09 20.72 24.15 19.96 20.78 20.21"/>
        </g>
      </g>
      <g>
        <text class="cls-2" transform="translate(61.09 34.04)"><tspan x="0" y="0">LIXIN JEWELRY</tspan></text>
        <text class="cls-5" transform="translate(52.49 27.1) scale(.86 1)"><tspan x="0" y="0">立信珠宝</tspan></text>
        <rect class="cls-6" x="54" y="32.75" width="5.06" height=".19"/>
        <rect class="cls-6" x="108.11" y="32.75" width="5.06" height=".19"/>
      </g>
    </g>
  </g>
</svg>